{
    "asset" : {
        "generator" : "Khronos Blender glTF 2.0 I/O",
        "version" : "2.0"
    },
    "scene" : 0,
    "scenes" : [
        {
            "name" : "Scene",
            "nodes" : [
                1
            ]
        }
    ],
    "nodes" : [
        {
            "mesh" : 0,
            "name" : "Jaw"
        },
        {
            "children" : [
                0
            ],
            "mesh" : 1,
            "name" : "Cube",
            "rotation" : [
                0,
                1,
                0,
                -4.371138828673793e-08
            ]
        }
    ],
    "animations" : [
        {
            "channels" : [
                {
                    "sampler" : 0,
                    "target" : {
                        "node" : 0,
                        "path" : "rotation"
                    }
                }
            ],
            "name" : "JawAction",
            "samplers" : [
                {
                    "input" : 8,
                    "interpolation" : "LINEAR",
                    "output" : 9
                }
            ]
        }
    ],
    "materials" : [
        {
            "name" : "Material",
            "pbrMetallicRoughness" : {
                "baseColorTexture" : {
                    "index" : 0,
                    "texCoord" : 0
                },
                "metallicFactor" : 0,
                "roughnessFactor" : 0.5
            }
        }
    ],
    "meshes" : [
        {
            "name" : "Jaw.001",
            "primitives" : [
                {
                    "attributes" : {
                        "POSITION" : 0,
                        "NORMAL" : 1,
                        "TEXCOORD_0" : 2
                    },
                    "indices" : 3,
                    "material" : 0
                }
            ]
        },
        {
            "name" : "Cube.001",
            "primitives" : [
                {
                    "attributes" : {
                        "POSITION" : 4,
                        "NORMAL" : 5,
                        "TEXCOORD_0" : 6
                    },
                    "indices" : 7,
                    "material" : 0
                }
            ]
        }
    ],
    "textures" : [
        {
            "source" : 0
        }
    ],
    "images" : [
        {
            "mimeType" : "image/png",
            "name" : "head",
            "uri" : "head.png"
        }
    ],
    "accessors" : [
        {
            "bufferView" : 0,
            "componentType" : 5126,
            "count" : 94,
            "max" : [
                0.853287398815155,
                5.960464477539063e-08,
                0.8129090070724487
            ],
            "min" : [
                -0.853287398815155,
                -0.6500024795532227,
                -1.0694627238684833e-17
            ],
            "type" : "VEC3"
        },
        {
            "bufferView" : 1,
            "componentType" : 5126,
            "count" : 94,
            "type" : "VEC3"
        },
        {
            "bufferView" : 2,
            "componentType" : 5126,
            "count" : 94,
            "type" : "VEC2"
        },
        {
            "bufferView" : 3,
            "componentType" : 5123,
            "count" : 234,
            "type" : "SCALAR"
        },
        {
            "bufferView" : 4,
            "componentType" : 5126,
            "count" : 300,
            "max" : [
                0.8532874584197998,
                1.0183073282241821,
                0.8904920220375061
            ],
            "min" : [
                -0.8532874584197998,
                -0.6500024795532227,
                -1.021097183227539
            ],
            "type" : "VEC3"
        },
        {
            "bufferView" : 5,
            "componentType" : 5126,
            "count" : 300,
            "type" : "VEC3"
        },
        {
            "bufferView" : 6,
            "componentType" : 5126,
            "count" : 300,
            "type" : "VEC2"
        },
        {
            "bufferView" : 7,
            "componentType" : 5123,
            "count" : 852,
            "type" : "SCALAR"
        },
        {
            "bufferView" : 8,
            "componentType" : 5126,
            "count" : 3,
            "max" : [
                1
            ],
            "min" : [
                0.1
            ],
            "type" : "SCALAR"
        },
        {
            "bufferView" : 9,
            "componentType" : 5126,
            "count" : 3,
            "type" : "VEC4"
        }
    ],
    "bufferViews" : [
        {
            "buffer" : 0,
            "byteLength" : 1128,
            "byteOffset" : 0
        },
        {
            "buffer" : 0,
            "byteLength" : 1128,
            "byteOffset" : 1128
        },
        {
            "buffer" : 0,
            "byteLength" : 752,
            "byteOffset" : 2256
        },
        {
            "buffer" : 0,
            "byteLength" : 468,
            "byteOffset" : 3008
        },
        {
            "buffer" : 0,
            "byteLength" : 3600,
            "byteOffset" : 3476
        },
        {
            "buffer" : 0,
            "byteLength" : 3600,
            "byteOffset" : 7076
        },
        {
            "buffer" : 0,
            "byteLength" : 2400,
            "byteOffset" : 10676
        },
        {
            "buffer" : 0,
            "byteLength" : 1704,
            "byteOffset" : 13076
        },
        {
            "buffer" : 0,
            "byteLength" : 12,
            "byteOffset" : 14780
        },
        {
            "buffer" : 0,
            "byteLength" : 48,
            "byteOffset" : 14792
        }
    ],
    "buffers" : [
        {
            "byteLength" : 14840,
            "uri" : "head.bin"
        }
    ]
}
