<?xml version="1.0" encoding="iso-8859-1"?>
<!-- Generator: Adobe Illustrator 19.0.0, SVG Export Plug-In . SVG Version: 6.00 Build 0)  -->
<svg version="1.1" id="Layer_1" xmlns="http://www.w3.org/2000/svg" xmlns:xlink="http://www.w3.org/1999/xlink" x="0px" y="0px"
	 viewBox="0 0 512 512" style="enable-background:new 0 0 512 512;" xml:space="preserve">
<g>
	<path style="fill:#F95428;" d="M213.809,417.105h-0.011c-1.726,0-3.331-0.513-4.672-1.395l-27.74-16.289l-11.864,11.864
		c-3.326,3.326-8.717,3.326-12.042,0c-3.326-3.326-3.326-8.717,0-12.043l16.52-16.52c2.741-2.742,6.988-3.286,10.333-1.322
		l33.778,19.835c1.335,0.783,2.406,1.899,3.133,3.209c0.686,1.227,1.076,2.64,1.076,4.145
		C222.319,413.292,218.512,417.105,213.809,417.105z"/>
	<path style="fill:#F95428;" d="M213.8,376.534c-1.588,0-3.177-0.442-4.567-1.328l-27.849-16.353l-11.864,11.864
		c-3.326,3.326-8.717,3.326-12.042,0c-3.326-3.326-3.326-8.717,0-12.043l16.52-16.52c2.741-2.742,6.988-3.286,10.333-1.322
		l33.778,19.835c0.594,0.349,1.143,0.769,1.636,1.25c3.365,3.285,3.436,8.682,0.151,12.048
		C218.227,375.676,216.014,376.534,213.8,376.534z"/>
	<path style="fill:#F95428;" d="M213.8,335.967c-1.588,0-3.177-0.442-4.567-1.328l-27.849-16.353l-11.864,11.864
		c-3.326,3.326-8.717,3.326-12.042,0c-3.326-3.326-3.326-8.717,0-12.043l16.52-16.52c2.741-2.742,6.988-3.286,10.333-1.322
		L218.11,320.1c0.594,0.349,1.143,0.769,1.636,1.25c3.365,3.285,3.436,8.682,0.151,12.048
		C218.227,335.109,216.014,335.967,213.8,335.967z"/>
	<path style="fill:#F95428;" d="M298.221,417.106c-2.92,0-5.764-1.503-7.35-4.204c-2.382-4.056-1.025-9.273,3.029-11.655
		l33.789-19.846c3.345-1.964,7.595-1.42,10.337,1.324l16.508,16.52c3.324,3.327,3.322,8.719-0.005,12.043
		c-3.326,3.324-8.717,3.322-12.042-0.005l-11.852-11.86l-28.11,16.511C301.171,416.728,299.686,417.106,298.221,417.106z"/>
	<path style="fill:#F95428;" d="M298.221,376.539c-2.92,0-5.764-1.503-7.35-4.204c-2.382-4.056-1.025-9.273,3.029-11.655
		l33.789-19.846c3.345-1.964,7.595-1.42,10.337,1.324l16.508,16.52c3.324,3.327,3.322,8.719-0.005,12.043
		c-3.326,3.324-8.717,3.322-12.042-0.005l-11.852-11.86l-28.11,16.511C301.171,376.161,299.686,376.539,298.221,376.539z"/>
	<path style="fill:#F95428;" d="M298.221,335.972c-2.92,0-5.764-1.503-7.35-4.204c-2.382-4.056-1.025-9.273,3.029-11.655
		l33.789-19.846c3.345-1.965,7.595-1.42,10.337,1.324l16.508,16.52c3.324,3.327,3.322,8.719-0.005,12.043
		c-3.326,3.324-8.717,3.322-12.042-0.005l-11.852-11.86l-28.11,16.511C301.171,335.594,299.686,335.972,298.221,335.972z"/>
	<path style="fill:#F95428;" d="M398.598,351.048c-4.703,0-8.515-3.813-8.515-8.515c0-36.5-6.334-72.257-18.826-106.277
		c-24.128-65.753-65.27-108.376-81.308-123.232l-27.069,37.035c-1.603,2.194-4.158,3.49-6.875,3.49
		c-2.717,0-5.272-1.297-6.875-3.489l-27.08-37.037c-16.03,14.849-57.178,57.47-81.309,123.232
		c-12.485,34.034-18.814,69.792-18.814,106.278c0,4.703-3.813,8.515-8.515,8.515c-4.703,0-8.515-3.813-8.515-8.515
		c0-38.494,6.681-76.225,19.857-112.145c32.022-87.267,90.9-134.61,93.39-136.583c1.815-1.437,4.136-2.074,6.432-1.762
		c2.295,0.311,4.363,1.543,5.729,3.412l25.699,35.149l25.689-35.148c1.367-1.869,3.435-3.102,5.729-3.413
		c2.296-0.311,4.616,0.325,6.433,1.762c2.49,1.973,61.367,49.316,93.39,136.582c13.183,35.905,19.868,73.636,19.868,112.146
		C407.113,347.236,403.301,351.048,398.598,351.048z"/>
	<path style="fill:#F95428;" d="M301.083,261.594l-3.218-16.724l8.362-1.609c23.405-4.503,47.099-10.576,70.425-18.049
		c11.65-3.729,20.498-6.962,25.567-8.892c0.614-10.924,1.159-39.076-5.629-77.962c-0.084-0.484-0.127-0.973-0.127-1.465v-8.515
		l17.031-0.023v7.803c9.085,52.539,5.429,85.721,5.269,87.114c-0.355,3.073-2.348,5.712-5.207,6.894
		c-0.489,0.202-12.196,5.02-31.71,11.265c-23.97,7.68-48.331,13.922-72.402,18.554L301.083,261.594z"/>
	<path style="fill:#F95428;" d="M210.917,261.594l-8.362-1.609c-24.07-4.631-48.431-10.875-72.404-18.556
		c-19.51-6.245-31.218-11.062-31.707-11.264c-2.86-1.182-4.854-3.822-5.207-6.896c-0.16-1.393-3.805-34.573,5.281-87.111v-7.781
		l17.031-0.023v8.538c0,0.49-0.043,0.981-0.127,1.465c-6.787,38.88-6.249,67.031-5.638,77.962c5.069,1.93,13.916,5.164,25.562,8.891
		c23.33,7.474,47.025,13.547,70.429,18.05l8.362,1.609L210.917,261.594z"/>
	<path style="fill:#F95428;" d="M342.613,447.976c-6.79-6.778-16.168-10.99-26.522-10.99h-9.935V287.592v-15.135h-0.011
		c1.805-5.847,2.01-12.921,1.067-20.766c-5.552-46.165-51.206-118.636-51.206-118.636s-45.654,72.471-51.217,118.636
		c-0.942,7.845-0.727,14.93,1.067,20.766h-0.011v164.528h-9.935c-10.355,0-19.733,4.212-26.511,10.99
		c-6.79,6.79-10.99,16.168-10.99,26.522c0,20.709,16.792,37.502,37.502,37.502h120.18c20.709,0,37.513-16.792,37.513-37.502
		C353.603,464.144,349.391,454.765,342.613,447.976z"/>
</g>
<path style="fill:#E54728;" d="M197.011,474.498c0-10.355,4.201-19.733,10.99-26.523c6.778-6.778,16.156-10.99,26.511-10.99h9.935
	V408.59v-0.011v-40.567v-3.463v-37.104v-6.949v-48.038h0.011c-1.794-5.836-2.01-12.921-1.067-20.766
	c3.109-25.794,18.732-59.797,31.916-84.786c-10.41-19.735-19.301-33.85-19.301-33.85s-45.654,72.471-51.217,118.636
	c-0.942,7.845-0.727,14.93,1.067,20.766h-0.011v48.038v6.949v37.104v3.463v40.567v0.011v28.396h-9.935
	c-10.355,0-19.733,4.212-26.511,10.99c-6.79,6.79-10.99,16.168-10.99,26.522c0,20.709,16.792,37.502,37.502,37.502h38.489h0.114
	C213.804,512,197.011,495.208,197.011,474.498z"/>
<g>
	<path style="fill:#F95428;" d="M404.979,136.893c-5.938,2.657-12.523,4.144-19.449,4.144c0,0-19.653-75.264-47.561-81.997V0h1.646
		c51.626,0,93.476,41.85,93.476,93.476c0,13.136-5.325,25.024-13.931,33.63C415.095,131.171,410.293,134.509,404.979,136.893z"/>
	<path style="fill:#F95428;" d="M107.032,136.893c-5.325-2.384-10.128-5.722-14.192-9.787c-8.606-8.606-13.931-20.494-13.931-33.63
		C78.909,41.85,120.77,0,172.396,0h1.635v59.04c-27.896,6.733-47.561,81.997-47.561,81.997
		C119.544,141.037,112.97,139.561,107.032,136.893z"/>
</g>
<path style="fill:#E54728;" d="M118.954,127.106c-8.606-8.606-13.931-20.494-13.931-33.63c0-43.154,29.256-79.456,69.008-90.216V0
	h-1.635C120.77,0,78.909,41.85,78.909,93.476c0,13.136,5.325,25.024,13.931,33.63c4.065,4.065,8.867,7.403,14.192,9.787
	c5.938,2.668,12.512,4.144,19.438,4.144v-7.82C123.76,131.433,121.237,129.389,118.954,127.106z"/>
<g>
	<circle style="fill:#333333;" cx="240.757" cy="207.638" r="8.515"/>
	<circle style="fill:#333333;" cx="271.254" cy="207.638" r="8.515"/>
</g>
<g>
	<path style="fill:#E54728;" d="M385.53,119.442v21.595c-13.125,0-25.024-5.325-33.63-13.931s-13.931-20.494-13.931-33.63V59.04
		C365.876,65.773,385.53,90.74,385.53,119.442z"/>
	<path style="fill:#E54728;" d="M174.031,59.04v34.436c0,13.136-5.325,25.024-13.931,33.63c-8.606,8.606-20.494,13.931-33.63,13.931
		v-21.595C126.47,90.74,146.135,65.773,174.031,59.04z"/>
</g>
<g>
</g>
<g>
</g>
<g>
</g>
<g>
</g>
<g>
</g>
<g>
</g>
<g>
</g>
<g>
</g>
<g>
</g>
<g>
</g>
<g>
</g>
<g>
</g>
<g>
</g>
<g>
</g>
<g>
</g>
</svg>
